<svg width="109" height="30" viewBox="0 0 109 30" fill="none" xmlns="http://www.w3.org/2000/svg">
<path d="M94.9046 17.832V18.3615H94.3752C94.46 18.6288 94.6009 18.7659 94.6077 19.0787C94.6168 19.4802 94.4411 19.8748 94.0965 20.0861C93.8548 20.2346 93.233 20.2603 93.2338 20.5148C93.2353 20.9473 94.6819 20.7511 94.8236 21.6524C94.9834 22.6696 94.2669 23.0567 93.3481 22.9734C92.2082 22.8704 91.9022 21.5116 92.9346 20.9677L92.7066 20.5171L93.0876 20.0603C92.4718 19.74 92.3847 18.7803 92.7846 18.2471C92.8611 18.1448 93.2641 17.832 93.3534 17.832H94.9061H94.9046ZM93.4443 18.4471C92.9141 18.5925 92.949 19.6642 93.639 19.5559C94.3775 19.44 94.0828 18.2721 93.4443 18.4471ZM94.2048 22.1963C94.8887 21.5138 92.5801 20.9541 92.8922 22.069C92.9937 22.4311 93.9722 22.4273 94.2048 22.1963Z" fill="black"/>
<path d="M80.3619 23.3447V28.4823H78.885C78.5797 28.4823 78.1374 27.9521 78.0299 27.6734C77.5406 26.41 78.1662 24.6823 79.756 25.158V23.3447H80.3619ZM79.756 27.9536V25.8003C79.266 25.3829 78.6638 25.7563 78.5199 26.3055C78.2647 27.284 78.626 28.1437 79.756 27.9536Z" fill="black"/>
<path d="M76.7263 16.0884V16.7685H75.2872V21.2259H74.6813V16.7685H73.2422V16.0884H76.7263Z" fill="black"/>
<path d="M85.7186 17.8448C87.881 17.4775 87.9961 20.982 86.3646 21.2842C84.1749 21.6902 84.0734 18.1243 85.7186 17.8448ZM85.8716 18.4447C84.8581 18.6219 84.9324 20.6874 86.0018 20.6995C87.2455 20.7139 87.1501 18.2205 85.8716 18.4447Z" fill="black"/>
<path d="M100.109 17.8444C102.431 17.4498 102.478 21.5974 100.173 21.2944C98.5847 21.0854 98.6029 18.1004 100.109 17.8444ZM101.014 20.4476C101.584 19.8273 101.239 18.2004 100.203 18.4647C99.1709 18.7283 99.3823 20.9377 100.587 20.6665C100.683 20.6445 100.952 20.5165 101.014 20.4484V20.4476Z" fill="black"/>
<path d="M90.3395 17.856C91.8051 17.6053 92.4739 19.3769 91.8763 20.5221C91.7195 20.8221 91.2651 21.2538 90.9227 21.3083C88.7989 21.6439 88.649 18.1453 90.3395 17.8568V17.856ZM90.4925 18.4566C89.4677 18.6036 89.5253 20.6986 90.622 20.7115C91.8369 20.7259 91.7847 18.2711 90.4925 18.4566Z" fill="black"/>
<path d="M78.6171 19.7222H76.7236C76.7236 20.8614 77.7809 20.8909 78.5406 20.3266L78.5429 20.953C78.068 21.3772 77.1273 21.4885 76.6448 21.0477C75.7745 20.2532 75.9305 17.8279 77.3681 17.8271C78.4005 17.8271 78.5315 18.9299 78.6179 19.7222H78.6171ZM78.0112 19.2693C77.9801 18.1786 76.7804 18.1657 76.7236 19.2693H78.0112Z" fill="black"/>
<path d="M77.3324 28.4804H76.7264V26.0248C76.7264 26.0067 76.5689 25.7166 76.5553 25.7052C76.2674 25.4674 75.5903 25.8158 75.5903 26.1006V28.4804H74.9844V25.1561H75.5911L75.6282 25.4583C75.9917 25.0296 76.6151 24.9107 77.0188 25.356C77.1142 25.4613 77.3331 25.9082 77.3331 26.0248V28.4804H77.3324Z" fill="black"/>
<path d="M83.9964 21.2333H83.3905V18.7778C83.3905 18.7596 83.233 18.4695 83.2193 18.4581C82.9315 18.2203 82.2544 18.5687 82.2544 18.8535V21.2333H81.6484V17.909H82.2551L82.2922 18.2112C82.6558 17.7825 83.2792 17.6636 83.6829 18.109C83.7783 18.2143 83.9972 18.6611 83.9972 18.7778V21.2333H83.9964Z" fill="black"/>
<path d="M93.8428 28.1055L94.2207 27.9548C94.3472 28.4153 93.8208 28.6849 93.4345 28.5486C93.3209 28.5084 93.3307 28.3274 93.2701 28.3274C93.149 28.3259 92.9566 28.5084 92.8028 28.5418C91.8348 28.7508 91.5743 27.5912 92.1833 27.0179C92.4696 26.7482 92.9748 26.7126 93.1603 26.5573C93.3588 26.3922 93.2338 25.6901 92.8763 25.6242C92.462 25.5477 91.9538 26.2385 91.8727 26.1408C91.6008 24.9948 93.3239 24.6827 93.6829 25.5818C93.7276 25.6931 93.842 26.1658 93.842 26.2544V28.1055H93.8428ZM93.2361 27.0474C92.7354 27.1186 92.2575 27.4412 92.5536 27.9926C93.277 28.3418 93.2891 27.5814 93.2361 27.0474Z" fill="black"/>
<path d="M81.5739 25.1551V27.5349C81.5739 27.7265 81.8595 28.0135 82.0715 28.0257C82.2609 28.0363 82.71 27.7765 82.71 27.6106V25.1551H83.316V28.4794H82.7093L82.6722 28.1771C82.3033 28.6558 81.7224 28.724 81.3058 28.2544C81.2543 28.1961 81.043 27.8689 81.043 27.8363V25.1543H81.5732L81.5739 25.1551Z" fill="black"/>
<path d="M85.6521 25.3211L85.6642 25.9884C85.5908 26.0717 85.0386 25.4143 84.6493 25.6923C84.1676 26.0369 85.0159 26.4527 85.2105 26.6299C86.4944 27.8002 85.4203 29.0953 83.9691 28.3387L83.9229 27.5752C83.9608 27.5245 84.6387 28.269 85.0545 27.9123C85.5415 27.4949 84.5501 27.0261 84.3092 26.7739C83.2935 25.7127 84.4637 24.5228 85.6521 25.3211Z" fill="black"/>
<path d="M98.5394 18.7357C96.4414 17.4254 96.4111 21.6571 98.6152 20.474L98.6053 21.1428C97.0716 21.7464 96.2702 20.7005 96.4202 19.228C96.533 18.1222 97.473 17.3943 98.5031 18.0556L98.5394 18.7365V18.7357Z" fill="black"/>
<path d="M81.1176 18.7357C79.0112 17.4284 78.9885 21.654 81.1933 20.474L81.1835 21.1428C79.6497 21.7464 78.8483 20.7005 78.9983 19.228C79.1112 18.1222 80.0511 17.3943 81.0812 18.0556L81.1176 18.7365V18.7357Z" fill="black"/>
<path d="M86.9488 27.4598C87.0874 28.3816 87.9365 27.6454 88.0084 27.7249C88.0561 28.2612 88.0228 28.5058 87.4403 28.5558C85.9399 28.6861 86.5368 26.6751 86.4186 25.7594C86.3731 25.7147 85.8733 25.8609 85.9641 25.6473L86.9473 24.4756V25.1557L87.8584 25.1989V25.7602H86.948C87.0041 26.2858 86.8715 26.9539 86.948 27.4598H86.9488Z" fill="black"/>
<path d="M74.227 23.3447H73.6211V28.4823H74.227V23.3447Z" fill="black"/>
<path d="M88.9966 28.4806H88.3906V25.1563H88.9973V25.685C89.3359 25.3858 89.4328 24.9367 89.9857 25.1147C90.4675 25.27 90.4046 25.679 90.0948 25.9857C89.8805 25.7214 89.5374 25.5426 89.2654 25.8395C89.2329 25.8751 88.9966 26.2993 88.9966 26.3266V28.4799V28.4806Z" fill="black"/>
<path d="M88.6161 16.0884H88.0859V21.2259H88.6161V16.0884Z" fill="black"/>
<path d="M77.0899 1.81948L77.1012 2.56327C76.0575 1.78843 74.6783 1.82327 74.2079 3.18965C73.7042 4.65222 74.6169 6.4329 76.3211 5.82621C76.6331 5.71487 76.8801 5.47705 77.1777 5.35889C77.3898 6.11858 76.6506 6.55561 75.9954 6.63438C72.4901 7.0555 72.7022 0.800761 76.0613 1.37185C76.4105 1.43093 76.7475 1.71875 77.0891 1.81948H77.0899Z" fill="black"/>
<path d="M93.3872 6.56746V8.30497H92.7812V3.24316H94.1825C94.237 3.24316 94.5634 3.41585 94.6377 3.46887C95.9382 4.39368 95.236 7.19157 93.3872 6.56746ZM93.3872 5.96304C94.0492 6.35084 94.6104 5.86458 94.6786 5.17382C94.777 4.17782 94.446 3.67338 93.3872 3.7726V5.9638V5.96304Z" fill="black"/>
<path d="M88.8219 3.19033C90.9965 2.82071 91.0912 6.32906 89.468 6.62976C87.2692 7.03724 87.1799 3.46982 88.8219 3.19033ZM88.9749 3.7902C87.9615 3.96744 88.0357 6.03291 89.1052 6.04503C90.3671 6.05942 90.2436 3.56752 88.9749 3.7902Z" fill="black"/>
<path d="M107.324 5.05814H105.431C105.431 6.19729 106.488 6.22683 107.248 5.66256L107.25 6.28894C106.775 6.71309 105.834 6.82443 105.352 6.38362C104.482 5.58909 104.638 3.16384 106.075 3.16309C107.108 3.16309 107.239 4.26588 107.325 5.05814H107.324ZM106.718 4.60521C106.687 3.51453 105.487 3.50165 105.431 4.60521H106.718Z" fill="black"/>
<path d="M80.1304 5.05814H78.2368C78.2368 6.19729 79.2942 6.22683 80.0539 5.66256L80.0561 6.28894C79.5426 6.73127 78.6284 6.82746 78.124 6.34196C77.2893 5.53758 77.462 3.16384 78.8806 3.16309C79.913 3.16309 80.044 4.26588 80.1304 5.05814ZM79.5244 4.60521C79.4934 3.51453 78.2936 3.50165 78.2368 4.60521H79.5244Z" fill="black"/>
<path d="M82.9339 6.57142H82.328V4.11587C82.328 4.0977 82.1705 3.80761 82.1568 3.79624C81.869 3.55842 81.1919 3.90683 81.1919 4.19162V6.57142H80.5859V3.24712H81.1926L81.2297 3.54933C81.6925 2.99717 82.503 3.0358 82.7991 3.72277C82.8233 3.77882 82.9347 4.16511 82.9347 4.19237V6.57217L82.9339 6.57142Z" fill="black"/>
<path d="M97.5511 6.1864L97.929 6.03568C98.0555 6.49619 97.5291 6.76583 97.1428 6.62949C97.0292 6.58935 97.0391 6.40833 96.9785 6.40833C96.8573 6.40681 96.6649 6.58935 96.5112 6.62267C95.5424 6.83172 95.2826 5.67212 95.8916 5.09875C96.1302 4.8738 96.8982 4.72156 96.9459 4.48752C97.0035 4.20349 96.927 3.76949 96.5854 3.70511C96.1711 3.62709 95.6651 4.32013 95.5818 4.22167C95.2599 3.08251 97.0345 2.76743 97.392 3.66269C97.4367 3.77403 97.5511 4.24666 97.5511 4.33528V6.1864ZM96.9444 5.12905C96.4437 5.20025 95.9658 5.52291 96.262 6.0743C96.9853 6.42347 96.9974 5.66303 96.9444 5.12905Z" fill="black"/>
<path d="M102.476 6.19221L102.854 6.04148C102.981 6.50199 102.454 6.77163 102.068 6.6353C101.954 6.59516 101.964 6.41413 101.904 6.41413C101.783 6.41262 101.59 6.59516 101.436 6.62848C100.468 6.83753 100.208 5.67792 100.817 5.10456C101.055 4.87961 101.823 4.72737 101.871 4.49333C101.929 4.2093 101.852 3.7753 101.511 3.71092C101.096 3.6329 100.59 4.32594 100.507 4.22747C100.175 3.02545 102.102 2.77475 102.365 3.77151C102.388 3.85937 102.476 4.35851 102.476 4.41607V6.19145L102.476 6.19221ZM101.87 5.13486C101.369 5.20605 100.891 5.52871 101.187 6.08011C101.911 6.42928 101.923 5.66884 101.87 5.13486Z" fill="black"/>
<path d="M84.2222 5.54428C84.3608 6.46605 85.2099 5.72984 85.2818 5.80937C85.3296 6.34562 85.2962 6.59027 84.7138 6.64026C83.2133 6.77053 83.8102 4.75959 83.692 3.84388C83.6466 3.79919 83.1467 3.94537 83.2376 3.73178L84.2207 2.56006V3.24022L85.1319 3.28339V3.84464H84.2215C84.2775 4.37028 84.145 5.03832 84.2215 5.54428H84.2222Z" fill="black"/>
<path d="M98.9927 6.56951H98.3867V3.24521H98.9934V3.77389C99.332 3.47471 99.4289 3.02556 99.9818 3.20355C100.464 3.35882 100.401 3.76707 100.092 4.07458C99.8508 3.85872 99.5297 3.63452 99.2623 3.92916C99.229 3.96551 98.9934 4.38815 98.9934 4.41618V6.56951H98.9927Z" fill="black"/>
<path d="M86.2661 6.56951H85.6602V3.24521H86.2668V3.77389C86.6054 3.47471 86.7024 3.02556 87.2553 3.20355C87.737 3.35882 87.6741 3.76707 87.3651 4.07458C87.1242 3.85872 86.8031 3.63452 86.5357 3.92916C86.5024 3.96551 86.2668 4.38815 86.2668 4.41618V6.56951H86.2661Z" fill="black"/>
<path d="M108.382 1.4292H107.852V6.56675H108.382V1.4292Z" fill="black"/>
<path d="M73.6179 13.8876V8.75H75.6251C75.7743 8.75 76.206 8.98404 76.3537 9.08023C77.6997 9.95884 77.6981 12.3455 76.5658 13.3907C76.4348 13.5119 75.8432 13.8876 75.7001 13.8876H73.6172H73.6179ZM74.2239 13.2074H75.3221C75.3752 13.2074 75.9122 13.0158 75.9924 12.9696C76.9892 12.397 76.9862 10.2815 75.9917 9.66875C75.8963 9.60967 75.4744 9.43016 75.3979 9.43016H74.2239V13.2074Z" fill="black"/>
<path d="M91.2453 10.5019C93.4198 10.1322 93.5153 13.6406 91.8914 13.9413C89.6842 14.3503 89.6161 10.7791 91.2453 10.5019ZM91.3983 11.1025C90.3849 11.2797 90.4591 13.3452 91.5285 13.3573C92.7722 13.3717 92.6768 10.8783 91.3983 11.1025Z" fill="black"/>
<path d="M97.2297 10.5019C99.4042 10.1322 99.4996 13.6406 97.8757 13.9413C95.6686 14.3503 95.6005 10.7791 97.2297 10.5019ZM97.3827 11.1025C96.3692 11.2797 96.4435 13.3452 97.5129 13.3573C98.7566 13.3717 98.6612 10.8783 97.3827 11.1025Z" fill="black"/>
<path d="M80.3593 12.3789H78.4657C78.4657 13.5181 79.5231 13.5476 80.2828 12.9834L80.2851 13.6097C79.8102 14.0339 78.8694 14.1452 78.387 13.7044C77.5167 12.9099 77.6727 10.4846 79.1103 10.4839C80.1427 10.4839 80.2737 11.5867 80.36 12.3789H80.3593ZM79.7534 11.9252C79.7223 10.8346 78.5226 10.8217 78.4657 11.9252H79.7534Z" fill="black"/>
<path d="M84.9048 13.5095L85.2828 13.3588C85.4093 13.8193 84.8829 14.0889 84.4966 13.9526C84.383 13.9125 84.3928 13.7314 84.3322 13.7314C84.211 13.7299 84.0187 13.9125 83.8649 13.9458C82.8962 14.1548 82.6364 12.9952 83.2453 12.4219C83.5316 12.1522 84.0368 12.1166 84.2224 11.9614C84.4209 11.7962 84.2959 11.0941 83.9384 11.0282C83.521 10.9517 83.0204 11.6417 82.9348 11.5448C83.0045 11.2327 82.8492 11.0184 83.0923 10.7571C83.5104 10.3087 84.5057 10.3852 84.745 10.9858C84.7897 11.0971 84.9041 11.5698 84.9041 11.6584V13.5095H84.9048ZM84.2982 12.4522C83.7975 12.5234 83.3196 12.846 83.6157 13.3974C84.3391 13.7466 84.3512 12.9861 84.2982 12.4522Z" fill="black"/>
<path d="M82.4685 10.73L82.4799 11.3981C82.4473 11.4428 81.8224 10.8459 81.4657 11.1019C80.984 11.4466 81.8323 11.8624 82.027 12.0396C83.3108 13.2098 82.2368 14.505 80.7855 13.7483L80.7393 12.9849C80.7772 12.9341 81.4551 13.6787 81.8709 13.3219C82.3579 12.9046 81.3665 12.4357 81.1256 12.1835C80.1099 11.1224 81.2801 9.93248 82.4685 10.7308V10.73Z" fill="black"/>
<path d="M86.3442 13.8903H85.7383V10.566H86.345V11.0947C86.6835 10.7955 86.7805 10.3464 87.3334 10.5244C87.8151 10.6796 87.7523 11.0879 87.4432 11.3954C87.2024 11.1795 86.8812 10.9553 86.6139 11.25C86.5805 11.2863 86.345 11.709 86.345 11.737V13.8903H86.3442Z" fill="black"/>
<path d="M88.6919 13.8903H88.0859V10.566H88.6926V11.0947C89.0312 10.7955 89.1281 10.3464 89.6811 10.5244C90.1628 10.6796 90.0999 11.0879 89.7909 11.3954C89.5015 11.1485 89.2281 10.947 88.9297 11.2939C88.8805 11.3507 88.6919 11.6938 88.6919 11.737V13.8903Z" fill="black"/>
<path d="M95.4325 8.75H94.9023V13.8876H95.4325V8.75Z" fill="black"/>
<path d="M94.1435 8.75H93.6133V13.8876H94.1435V8.75Z" fill="black"/>
<path d="M95.1318 23.3447H94.6016V28.4823H95.1318V23.3447Z" fill="black"/>
<path d="M95.813 17.9072H95.207V21.2315H95.813V17.9072Z" fill="black"/>
<path d="M91.3442 25.1543H90.7383V28.4786H91.3442V25.1543Z" fill="black"/>
<path d="M91.344 16.0137C91.2243 16.1712 90.8063 17.0824 90.7222 17.1301C90.6305 17.1816 90.4692 17.1339 90.3594 17.146L90.6987 16.0879C90.8214 15.9402 91.166 16.0371 91.3433 16.0144L91.344 16.0137Z" fill="black"/>
<path d="M91.0109 24.4734C91.2175 24.4734 91.385 24.3062 91.385 24.1C91.385 23.8937 91.2175 23.7266 91.0109 23.7266C90.8042 23.7266 90.6367 23.8937 90.6367 24.1C90.6367 24.3062 90.8042 24.4734 91.0109 24.4734Z" fill="black"/>
<path d="M95.3333 16.4842C95.8408 16.3168 95.9824 17.103 95.6082 17.2159C95.0591 17.3802 95.0205 16.588 95.3333 16.4842Z" fill="black"/>
<path d="M41.6562 28.563V1.43994H48.2079C50.5203 1.43994 52.226 3.59252 52.2631 5.78069L52.2517 24.5881C52.0745 26.1181 50.1673 28.563 48.5109 28.563H41.6562ZM45.0646 4.99071V24.8986L45.1782 25.0122H47.2233C47.8474 25.0122 48.8403 23.9064 48.7752 23.2361L48.779 7.14101C48.7502 6.4654 48.4722 5.6951 47.8921 5.30579C47.811 5.25201 47.2695 4.99071 47.2233 4.99071H45.0646Z" fill="black"/>
<path d="M39.8388 25.3481C39.5547 27.4416 37.2098 28.4429 35.3352 28.5618C32.0397 28.7716 29.4463 27.8748 29.2312 24.218C28.8684 18.0489 29.5129 11.5298 29.2319 5.32352C29.5296 1.27438 35.1489 0.645724 37.9952 2.25372C38.8163 2.71726 39.838 3.97381 39.838 4.9486V10.124H36.3539V6.15744C36.3539 5.97339 35.6669 5.1887 35.4715 5.07282C34.5528 4.52748 33.1099 5.0304 32.7766 6.06503L32.7357 23.8938C33.019 25.4019 35.0974 25.6844 35.9608 24.5036C36.0366 24.3998 36.2767 24.0037 36.2767 23.912V19.9454H39.6472C39.6706 19.9454 39.7547 19.8417 39.8365 19.8697V25.3473L39.8388 25.3481Z" fill="black"/>
<path d="M63.8475 1.43994V4.99071H60.2877V28.563H56.7278V5.10432L56.6142 4.99071H53.168V1.43994H63.8475Z" fill="black"/>
<path d="M68.4693 1.43994H65.1367V28.563H68.4693V1.43994Z" fill="black"/>
<path d="M8.1773 0L13.4035 5.5155H8.10156V0H8.1773Z" fill="black"/>
<path d="M24.689 17.3386L12.2189 29.8374L8.10156 25.8762V18.1323L11.9265 21.8331L24.689 9.2168V17.3386Z" fill="black"/>
<path d="M13.4812 12.4685L8.12631 17.9681C5.47081 17.9424 2.80774 18.0363 0.154513 18.028C0.0658952 18.028 0.0568062 18.0227 0 17.9454V12.4678H13.482L13.4812 12.4685Z" fill="black"/>
</svg>
