<svg width="77" height="39" viewBox="0 0 77 39" fill="none" xmlns="http://www.w3.org/2000/svg">
<path d="M51.7355 14.9205V15.9707H44.9681V18.6726H51.4356C51.4251 19.0372 51.5502 19.4803 51.2096 19.7229H44.8174C44.7767 19.8329 44.9681 19.9022 44.9681 19.9474V23.475H43.7656V14.9189H51.737L51.7355 14.9205Z" fill="black"/>
<path d="M77.0019 14.9238V23.4799H75.9486L76.0225 22.8786C75.5584 23.1167 75.376 23.3865 74.8064 23.4663C73.6883 23.6245 70.6384 23.6562 69.8322 22.8289C68.9175 21.8901 69.008 18.7513 70.1788 17.9481C71.2336 17.2248 74.8788 17.1872 75.9471 18.0762V14.9238H77.0004H77.0019ZM71.3949 18.4077C70.0311 18.7136 69.9362 21.6219 70.7559 22.2834C71.4581 22.85 74.2353 22.841 75.0762 22.5321C76.5634 21.9866 76.4896 18.584 74.6738 18.3716C74.0681 18.3007 71.9373 18.2842 71.3933 18.4062L71.3949 18.4077Z" fill="black"/>
<path d="M54.258 17.5068C55.1937 17.3727 57.9513 17.3651 58.7651 17.7328C60.5808 18.5511 60.5658 23.1124 58.1156 23.459C57.219 23.5855 54.0184 23.5765 53.286 23.2013C52.0052 22.5443 52.0052 20.4904 52.2538 19.2608C52.4738 18.1743 53.1911 17.6605 54.2565 17.5068H54.258ZM53.5844 22.2293C54.2444 22.8848 57.4405 22.8713 58.2587 22.4011C59.2668 21.8225 59.2819 19.0318 58.1141 18.5345C57.5053 18.2753 54.5036 18.2467 53.937 18.539C52.9952 19.0242 52.9967 21.6462 53.5844 22.2309V22.2293Z" fill="black"/>
<path d="M61.4131 18.1203C62.3338 17.2011 66.5561 17.2252 67.6049 17.9168C69.0741 18.8873 69.0469 23.1879 66.55 23.4727C65.5404 23.5872 62.4543 23.6083 61.6693 23.0899C60.4186 22.2642 60.4261 19.1043 61.4116 18.1203H61.4131ZM67.0307 18.717C66.5048 18.2272 63.1219 18.2242 62.5101 18.5392C61.5804 19.0184 61.5773 21.5107 62.1078 22.1647C62.706 22.9016 66.1507 22.891 66.9253 22.3455C67.6998 21.8001 67.7239 19.3619 67.0307 18.7185V18.717Z" fill="black"/>
<path d="M21.0541 38.3302H17.2945C16.2396 38.0785 15.1562 37.964 14.1044 37.6867C7.78002 36.0232 2.46073 30.7687 0.712754 24.485C0.399323 23.3578 0.254663 22.2051 0 21.0689V19.1175H2.10662C2.09155 34.6202 21.5077 42.2873 31.9609 30.5276C42.4141 18.7679 32.5169 0.261895 16.9358 2.32481C14.6815 2.62317 12.6412 3.45045 10.6145 4.41937L9.6606 2.67893C11.829 1.22027 15.0356 0.239292 17.6712 0.0569591C40.9133 -1.55389 46.4013 31.4874 24.2442 37.6883L21.0541 38.3317V38.3302Z" fill="black"/>
<path d="M30.2302 12.8137C28.7309 10.0064 25.6779 7.64512 22.5873 6.85401C11.227 3.94423 2.13295 16.2268 8.41513 26.1014C13.5174 34.121 25.6162 33.8618 30.2302 25.5725C30.6597 25.9055 31.3107 26.0833 31.7235 26.4043C31.942 26.5745 32.0581 26.6288 31.9737 26.9272C31.9044 27.1743 30.5753 28.871 30.3026 29.1769C25.0435 35.0733 16.0219 35.7123 9.85119 30.8224C2.72365 25.1747 2.40268 14.2664 9.13994 8.16952C16.1499 1.82556 27.3355 3.50874 32.0189 11.6685L30.2302 12.8137Z" fill="black"/>
<path d="M19.2501 19.2659H10.8281C10.8116 19.9862 10.8809 21.3771 11.4384 21.8849C12.2823 22.6519 16.1715 22.6037 17.157 22.0552C17.4479 21.8939 17.6166 21.5383 17.7025 21.5157C18.028 21.4283 18.5795 21.5775 18.9487 21.5187C18.8493 22.1516 18.3927 22.7302 17.8532 23.0497C16.601 23.7941 12.5234 23.7851 11.1762 23.1959C9.38757 22.4138 9.47798 19.495 9.62716 17.8419C9.73717 16.6274 10.254 15.4384 11.5123 15.0693C12.8459 14.679 16.4111 14.6534 17.6543 15.229C19.1416 15.9176 19.2531 17.8284 19.2501 19.2659ZM10.8281 18.0649H17.8969C18.254 15.7338 15.0369 15.8468 13.4531 15.9568C11.8664 16.0668 11.0331 16.3335 10.8281 18.0649Z" fill="black"/>
<path d="M24.511 12.814V14.9161H28.6474C28.9985 15.2069 28.985 15.8488 28.6474 16.117H24.511V21.5961C24.511 21.7724 25.162 22.4218 25.3383 22.4218H28.872V23.4721H25.0369C24.5683 23.4721 23.5949 22.3661 23.4924 21.8613C23.3101 20.9677 23.6612 16.319 23.4592 16.1155C23.0705 16.0492 21.9689 16.3175 21.8258 15.8699L21.8047 14.9146H23.4592V12.814H24.5125H24.511Z" fill="black"/>
<path d="M21.358 14.9185H20.3047V23.4745H21.358V14.9185Z" fill="black"/>
<path d="M21.3556 12.814H20.3008V13.8673H21.3556V12.814Z" fill="black"/>
</svg>
