<svg xmlns="http://www.w3.org/2000/svg" width="49" height="33" fill="none" viewBox="0 0 49 33"><path fill="#000" d="M0 .11v32.76h48.23V.11zm47.302 31.814H.927V1.007h46.375z"/><path fill="#000" d="m23.13 7.741.977-.714.98.714-.373-1.156.994-.713h-1.225l-.376-1.169-.374 1.17h-1.225l.994.712zm-5.067 1.364.98-.715.977.715-.373-1.155.995-.714h-1.227l-.374-1.171-.375 1.172-1.225-.001.993.714zm-2.723.673-.377 1.172-1.225-.001.995.714-.373 1.155.98-.715.977.715-.373-1.155.994-.714h-1.224zm-1.362 7.382.978.714-.371-1.155.992-.714h-1.223l-.376-1.171-.374 1.172-1.225-.001.994.714L13 17.874zm1.736 3.913-.375-1.17-.376 1.172-1.225-.002.995.715-.373 1.154.98-.715.977.715-.373-1.154.994-.715zm3.713 3.713-.375-1.169-.374 1.17h-1.225l.993.712-.372 1.156.978-.714.978.714-.371-1.156.993-.713zm5.055 1.348-.375-1.17-.374 1.171-1.225-.002.992.715-.37 1.155.977-.715.978.715-.373-1.155.994-.714zm5.058-1.348-.374-1.169-.377 1.17h-1.223l.993.712-.371 1.156.978-.714.98.714-.375-1.156.994-.713zm3.713-3.713-.376-1.17-.375 1.172-1.225-.002.995.715-.373 1.154.978-.715.98.715-.374-1.154.995-.715zm2.568-5.08h-1.225l-.376-1.169-.374 1.171-1.225-.002.994.715-.37 1.154.975-.714.98.714-.373-1.154zm-3.922-3.197.978-.713.98.713-.374-1.155.995-.713h-1.225l-.376-1.169-.375 1.171-1.225-.002.995.713zm-2.718-6.731-.374 1.17h-1.225l.993.714-.373 1.156.98-.716.977.716-.371-1.156.994-.715h-1.226z"/></svg>