<svg width="49" height="33" viewBox="0 0 49 33" fill="none" xmlns="http://www.w3.org/2000/svg">
<path d="M0 0.109375V32.8692H48.2306V0.109375H0ZM47.3018 31.9241H0.927166V1.00711H47.3018V31.9241Z" fill="black"/>
<path d="M23.1292 7.74135L24.1071 7.02676L25.0865 7.74135L24.7137 6.58525L25.7079 5.8723H24.4832L24.1071 4.70312L23.7326 5.87394L22.5078 5.8723L23.502 6.58525L23.1292 7.74135Z" fill="black"/>
<path d="M18.0628 9.1048L19.0423 8.39021L20.0201 9.1048L19.6473 7.95034L20.6415 7.23575H19.4151L19.0406 6.06494L18.6662 7.23739L17.4414 7.23575L18.434 7.95034L18.0628 9.1048Z" fill="black"/>
<path d="M15.3392 9.77783L14.9631 10.9503L13.7383 10.9486L14.7325 11.6632L14.3597 12.8177L15.3392 12.1031L16.317 12.8177L15.9442 11.6632L16.9384 10.9486H15.7136L15.3392 9.77783Z" fill="black"/>
<path d="M13.9781 17.1593L14.956 17.8738L14.5848 16.7194L15.5774 16.0048H14.3542L13.9781 14.834L13.6037 16.0064L12.3789 16.0048L13.3731 16.7194L13.0003 17.8738L13.9781 17.1593Z" fill="black"/>
<path d="M15.7136 21.073L15.3392 19.9038L14.9631 21.0746L13.7383 21.073L14.7325 21.7876L14.3597 22.942L15.3392 22.2274L16.317 22.942L15.9442 21.7876L16.9384 21.073H15.7136Z" fill="black"/>
<path d="M19.4268 24.7864L19.0524 23.6172L18.6779 24.7864H17.4531L18.4457 25.4993L18.0745 26.6554L19.0524 25.9408L20.0302 26.6554L19.659 25.4993L20.6516 24.7864H19.4268Z" fill="black"/>
<path d="M24.4815 26.1335L24.1071 24.9644L23.7326 26.1352L22.5078 26.1335L23.5004 26.8481L23.1292 28.0026L24.1071 27.288L25.0849 28.0026L24.7121 26.8481L25.7063 26.1335H24.4815Z" fill="black"/>
<path d="M29.5401 24.7864L29.1656 23.6172L28.7895 24.7864H27.5664L28.559 25.4993L28.1878 26.6554L29.1656 25.9408L30.1451 26.6554L29.7707 25.4993L30.7649 24.7864H29.5401Z" fill="black"/>
<path d="M33.2527 21.073L32.8766 19.9038L32.5021 21.0746L31.2773 21.073L32.2716 21.7876L31.8987 22.942L32.8766 22.2274L33.8561 22.942L33.4832 21.7876L34.4775 21.073H33.2527Z" fill="black"/>
<path d="M35.8212 15.9934H34.5964L34.2203 14.8242L33.8459 15.995L32.6211 15.9934L33.6153 16.708L33.2441 17.8624L34.2203 17.1479L35.1998 17.8624L34.827 16.708L35.8212 15.9934Z" fill="black"/>
<path d="M31.8987 12.7959L32.8766 12.0829L33.8561 12.7959L33.4832 11.6414L34.4775 10.9285H33.2527L32.8766 9.75928L32.5021 10.9301L31.2773 10.9285L32.2716 11.6414L31.8987 12.7959Z" fill="black"/>
<path d="M29.1813 6.06494L28.8068 7.23575L27.582 7.23412L28.5746 7.94871L28.2018 9.1048L29.1829 8.38858L30.1591 9.1048L29.7879 7.94871L30.7821 7.23412H29.5557L29.1813 6.06494Z" fill="black"/>
</svg>
