<svg width="122" height="27" viewBox="0 0 122 27" fill="none" xmlns="http://www.w3.org/2000/svg">
<path d="M81.8022 0.0439453H80.8125V23.8942H81.8022V0.0439453Z" fill="black"/>
<path d="M59.7273 20.8875C59.4005 20.5576 58.9667 20.0475 59.1164 19.5679C59.3455 18.8287 61.3401 17.222 61.8136 16.4431C62.4673 16.1651 63.1759 17.0479 63.7716 17.4022C65.2561 18.2911 67.7242 19.0273 69.2851 17.9918C70.9437 16.8921 69.673 15.5145 68.4176 14.8578C64.9476 13.0433 60.2649 12.6707 59.8098 7.65201C59.1378 0.266017 67.9655 -1.68892 73.195 1.93077C73.6135 2.22095 74.9453 3.17704 74.8658 3.67493C74.8322 3.88876 72.3611 6.9464 72.1625 7.03803C71.9884 7.11745 71.8448 7.12662 71.6677 7.0472C70.2901 6.03918 67.3363 4.6188 65.8579 6.04529C64.7246 7.13884 65.8823 8.19878 66.9117 8.70889C69.8991 10.1873 74.1969 10.5752 75.2904 14.4149C77.9296 23.6764 65.3508 26.5629 59.7273 20.8936V20.8875Z" fill="black"/>
<path d="M55.275 5.94153C53.6988 4.85104 52.8527 4.03852 50.8122 3.66892C43.3926 2.32795 38.3892 10.5723 42.4549 16.7151C45.0818 20.686 49.9478 21.3244 53.9126 18.9266C54.2914 18.6975 54.9328 17.9155 55.3971 17.9919C55.8003 18.056 57.3887 19.7177 57.4559 20.2339C57.4498 20.7349 55.8156 21.7979 55.3452 22.0881C47.947 26.6638 38.4503 22.1125 37.3323 13.5597C36.1044 4.18209 45.4117 -2.84652 54.0806 1.13972C54.8168 1.47878 57.3337 2.99691 57.6148 3.66892C57.8408 4.20958 56.0722 5.69411 55.614 6.04538C55.4613 6.08509 55.3849 6.01789 55.2719 5.93847L55.275 5.94153Z" fill="black"/>
<path d="M52.2684 13.3924H49.3024V10.9213H55.2344V13.4535C55.2344 14.9106 53.6674 17.1038 52.3539 17.7361C46.7854 20.4271 40.8748 14.6082 43.6758 8.93885C44.9312 6.39743 48.3951 5.01676 51.0862 5.74069C51.6513 5.89342 54.0981 7.00529 53.9423 7.72007C53.9026 7.90334 52.4608 9.37565 52.302 9.42147C51.8499 9.54671 51.2939 8.96939 50.8694 8.79834C47.5521 7.44821 44.8274 11.3123 46.9015 14.1255C48.2119 15.9033 51.8713 15.9522 52.2684 13.3924Z" fill="black"/>
<path d="M19.2773 0.736285C19.2896 0.696575 19.4698 0.516354 19.5278 0.491918C22.4266 0.556064 25.7164 0.18035 28.5908 0.443044C35.5919 1.08451 38.3349 9.89393 33.1177 14.0757C32.8366 14.3017 31.737 14.8332 31.7706 15.0409L36.8992 23.0897C36.8687 23.5082 36.493 23.496 36.1509 23.5266C35.0726 23.6182 33.0108 23.6274 31.9386 23.5266C31.3216 23.4685 31.1016 23.3738 30.7168 22.8943L26.4556 16.0703L25.078 15.9176L24.91 23.2822C24.855 23.3616 23.5171 23.5266 23.3002 23.5266C23.0742 23.5266 22.8237 23.3921 22.558 23.3921C21.7454 23.3921 20.3006 23.5266 19.5889 23.3983C19.4515 23.3738 19.3568 23.3341 19.2804 23.2119V0.736285H19.2773ZM24.9589 5.55337V10.7401L25.1452 10.9264H27.7416C27.934 10.9264 28.997 10.4315 29.2047 10.288C30.9459 9.08752 30.4388 5.99628 28.3067 5.54726C27.8393 5.44951 25.8539 5.30595 25.3896 5.36398C25.2093 5.38537 25.0719 5.37926 24.965 5.55642L24.9589 5.55337Z" fill="black"/>
<path d="M0 0.549577C0.226039 0.49154 0.436806 0.439612 0.675063 0.421285C2.90186 0.247173 8.85219 0.167754 10.8774 0.610669C15.1324 1.53926 17.3684 6.63126 14.5215 10.0646C14.3657 10.2509 13.318 11.1307 13.4707 11.2987C18.1656 12.5205 18.9904 19.4758 15.0438 22.0722C11.8121 24.1982 5.57462 23.4926 1.79915 23.3979C1.25238 23.3857 0.510116 23.8255 0.00305459 23.2177V0.549577H0ZM5.68458 9.19405H8.9591C8.9927 9.19405 9.47532 8.97718 9.5578 8.9283C10.3612 8.44568 10.6238 7.14137 10.2268 6.31969C10.1351 6.1303 9.48754 5.48884 9.3287 5.48884H5.68458V9.19405ZM5.68458 18.4586H10.1962C10.242 18.4586 10.9079 18.0829 10.9935 18.0188C12.1909 17.0932 12.1573 15.1505 10.9171 14.2769C10.7919 14.1883 10.2909 13.8859 10.1962 13.8859H5.68458V18.4556V18.4586Z" fill="black"/>
<path d="M88.2303 21.4222C88.3464 21.3397 89.1375 22.0698 89.3788 22.1859C90.4327 22.6838 92.4304 22.6013 92.4304 21.1137C92.4304 19.1924 88.4197 19.2871 88.0073 17.2558C87.9157 16.8098 87.9493 16.0798 88.0653 15.6399C88.5571 13.7338 92.2135 13.5933 93.2856 15.0778L92.803 15.8079C92.4792 16.0187 92.0455 15.368 91.5995 15.2764C90.8786 15.1298 89.4705 15.2184 89.2505 16.0798C88.6213 18.5356 93.026 18.0255 93.6094 20.3073C94.3853 23.3374 90.5609 24.434 88.438 23.0076C87.5033 22.3814 87.6896 22.247 88.2334 21.4222H88.2303Z" fill="black"/>
<path d="M105.65 20.9287C105.849 22.8103 108.247 22.9447 109.481 21.9184L109.771 22.8745C107.114 24.8019 103.488 22.902 104.474 19.4472C105.314 16.4995 109.857 16.7195 110.208 19.6488C110.254 20.0306 110.324 20.6629 110.037 20.9318H105.65V20.9287ZM108.986 19.939C108.946 17.81 105.873 18.0055 105.525 19.939H108.986Z" fill="black"/>
<path d="M118.502 21.9181L120.167 17.5958L121.465 17.4736C120.635 19.4774 119.95 21.6829 119.052 23.6439C118.402 25.0673 117.571 26.9734 115.711 25.7485L115.912 24.8871C117.265 25.3728 117.684 24.5053 117.986 23.369L115.289 17.4736L116.587 17.5958L118.502 21.9181Z" fill="black"/>
<path d="M98.2381 23.5244V22.9074C97.0162 23.9307 94.7406 23.894 94.5451 21.9666C94.3312 19.8467 96.6466 19.4465 98.2381 20.0666C98.3572 18.0017 96.6924 18.0934 95.2751 18.8326L95.0368 17.8551C96.946 16.9632 99.1239 16.9784 99.3499 19.5137C99.4171 20.2591 99.4752 22.5592 99.3499 23.219C99.3255 23.3595 99.3072 23.4694 99.1483 23.5091L98.2381 23.5275V23.5244ZM96.8543 20.7111C94.7894 20.8761 95.938 23.6222 97.8623 22.2232C98.9314 21.4442 97.9295 20.6256 96.8543 20.7111Z" fill="black"/>
<path d="M100.832 15.9259C100.936 15.1653 101.419 14.423 102.161 14.1603C102.701 13.9679 104.669 14.0259 104.485 14.8781C104.275 15.8587 103.676 15.0522 102.995 15.1133C101.895 15.2111 101.904 16.6437 101.944 17.4715H103.92V18.5833H101.944V23.5226H100.832V15.9259Z" fill="black"/>
<path d="M111.211 15.8662H112.448L112.323 17.4729H114.547V18.5848H112.445V21.8593C112.445 22.0609 112.922 22.4641 113.154 22.513C113.994 22.6963 114.391 21.7035 114.672 22.9742C114.666 23.6126 112.64 23.634 112.155 23.3866C111.712 23.1606 111.211 22.2014 111.211 21.7341V15.8662Z" fill="black"/>
<path d="M114.548 0.914062V10.1786H113.436V9.56159C111.903 11.0553 109.114 10.2794 108.772 8.11067C108.286 5.03164 110.607 3.41882 113.436 4.37185V0.914062H114.548ZM113.436 5.48372C108.561 3.50741 108.894 11.4982 113.436 8.51082V5.48372Z" fill="black"/>
<path d="M93.6635 0.914062V2.02593H89.5856V5.05303L89.772 5.23936H93.2939V6.34817H89.772L89.5856 6.5345V10.1786H88.3516V0.914062H93.6635Z" fill="black"/>
<path d="M100.669 7.20829C100.669 8.97995 99.2329 10.4156 97.4612 10.4156C95.6896 10.4156 94.2539 8.97995 94.2539 7.20829C94.2539 5.43663 95.6896 4.00098 97.4612 4.00098C99.2329 4.00098 100.669 5.43663 100.669 7.20829ZM97.223 5.14034C94.8343 5.37554 94.8404 9.35567 97.5376 9.26708C100.235 9.1785 100.006 4.86848 97.223 5.14034Z" fill="black"/>
<path d="M107.883 7.21269C107.883 8.98435 106.448 10.42 104.676 10.42C102.904 10.42 101.469 8.98435 101.469 7.21269C101.469 5.44103 102.904 4.00537 104.676 4.00537C106.448 4.00537 107.883 5.44103 107.883 7.21269ZM106.726 7.21269C106.726 6.07944 105.806 5.16306 104.673 5.16306C103.54 5.16306 102.62 6.08249 102.62 7.21269C102.62 8.34288 103.54 9.26231 104.673 9.26231C105.806 9.26231 106.726 8.34288 106.726 7.21269Z" fill="black"/>
</svg>
