<svg width="45" height="46" viewBox="0 0 45 46" fill="none" xmlns="http://www.w3.org/2000/svg">
<path d="M4.88551 41.2298C4.65667 41.2529 4.49811 41.0286 4.31671 40.9144C2.72351 39.9116 1.29129 40.7681 1.44567 42.6601C1.50887 43.4352 2.12126 44.1878 2.94029 44.1878H3.56731V43.0946H2.50625V42.0657H4.91767V44.7503C3.49848 45.3608 1.42187 45.5195 0.454571 44.069C-0.140124 43.1772 -0.140606 41.6575 0.390405 40.7375C1.27585 39.2037 3.47806 39.1779 4.88551 39.9596V41.2296V41.2298Z" fill="black"/>
<path d="M38.2578 0.0449219V5.8645H36.9396L36.9232 5.47838C36.4611 5.85823 36.0402 6.06874 35.4207 5.98479C33.618 5.74083 33.5815 1.33016 36.1193 1.52442C36.4151 1.5471 36.669 1.67848 36.9396 1.78108V0.0449219H38.2578ZM36.9396 2.617C35.8221 2.23764 35.4259 3.02113 35.4912 4.01722C35.5521 4.94464 36.1672 5.2333 36.9396 4.72304V2.617Z" fill="black"/>
<path d="M10.5774 1.97387C10.5221 1.97677 10.4702 1.98014 10.4172 1.95715C10.3322 1.92016 10.0739 1.66688 9.95137 1.58711C8.80315 0.841251 7.55876 1.3364 7.43059 2.73356C7.26511 4.5371 8.54793 5.58208 10.1246 4.46297C10.2643 4.36375 10.3864 4.15887 10.5773 4.19232V5.49444C8.93309 6.44518 6.55334 6.111 6.05948 4.03182C5.70746 2.54975 6.17671 0.752641 7.78004 0.285956C8.65874 0.0302598 9.79457 0.159234 10.5771 0.639428V1.97371L10.5774 1.97387Z" fill="black"/>
<path d="M15.2367 4.03598H12.3751C12.425 5.15236 13.7195 5.19272 14.5188 4.84536C14.7428 4.74807 14.9334 4.55139 15.1723 4.55043V5.62757C13.7509 6.34094 11.2579 6.13896 11.0608 4.17686C10.8754 2.33263 12.1574 1.1479 13.983 1.60831C14.6589 1.77878 15.2367 2.47559 15.2367 3.18414V4.03614V4.03598ZM13.9506 3.23207C13.9043 2.89886 13.853 2.54522 13.4915 2.42107C12.9032 2.21909 12.3663 2.61357 12.3751 3.23207H13.9506Z" fill="black"/>
<path d="M33.7601 4.03598H30.8986C30.9484 5.15236 32.243 5.19272 33.0422 4.84536C33.2662 4.74807 33.4568 4.55139 33.6958 4.55043V5.62757C32.2743 6.34094 29.7814 6.13896 29.5842 4.17686C29.3988 2.33263 30.6808 1.1479 32.5064 1.60831C33.1823 1.77878 33.7601 2.47559 33.7601 3.18414V4.03614V4.03598ZM32.4739 3.23207C32.4276 2.89886 32.3763 2.54522 32.0148 2.42107C31.4265 2.21909 30.8896 2.61357 30.8984 3.23207H32.4739Z" fill="black"/>
<path d="M32.345 39.5918V40.6207H30.0622V41.6496H32.1522V42.6785H30.0622V45.0577H28.6797V39.5918H32.345Z" fill="black"/>
<path d="M39.9326 43.2575H37.1353C37.1403 44.3472 38.3915 44.4096 39.1724 44.0889C39.4136 43.9899 39.618 43.7813 39.8682 43.772V44.817C38.5148 45.4938 36.1893 45.3687 35.8578 43.5544C35.5241 41.7275 36.8002 40.4825 38.6214 40.8551C39.333 41.0006 39.9326 41.7031 39.9326 42.4377V43.2575ZM38.6464 42.4859C38.7674 41.4762 37.3957 41.3089 37.1498 42.2272C37.1318 42.2946 37.0906 42.4443 37.1513 42.4859H38.6464Z" fill="black"/>
<path d="M41.6052 43.259C41.6596 44.3725 42.9378 44.4243 43.7388 44.0583C43.9427 43.9652 44.1194 43.7724 44.3381 43.7735V44.8667C43.0149 45.4196 40.7933 45.4024 40.3792 43.6973C39.9183 41.7988 41.3663 40.3253 43.2694 40.9036C44.2072 41.1886 44.5422 42.245 44.4362 43.1481C44.4308 43.1949 44.4322 43.2307 44.3864 43.259H41.6052ZM43.1486 42.4875C43.1955 41.3114 41.5964 41.373 41.6052 42.4875H43.1486Z" fill="black"/>
<path d="M17.0701 43.259C17.1244 44.3725 18.4026 44.4243 19.2036 44.0583C19.4075 43.9652 19.5843 43.7724 19.803 43.7735V44.8667C18.4798 45.4196 16.2581 45.4024 15.844 43.6973C15.3831 41.7988 16.8311 40.3253 18.7342 40.9036C19.6721 41.1886 20.007 42.245 19.9011 43.1481C19.8956 43.1949 19.8971 43.2307 19.8512 43.259H17.0701ZM18.6134 42.4875C18.6604 41.3114 17.0612 41.373 17.0701 42.4875H18.6134Z" fill="black"/>
<path d="M24.402 45.0588H23.0838V42.4705C23.0838 42.4009 22.9978 42.119 22.9506 42.0571C22.7258 41.7618 22.0547 41.8929 21.8299 42.1489V45.0587H20.5117V40.9433H21.8299L21.8463 41.3294C22.3526 40.8955 23.0532 40.6311 23.7021 40.9198C24.0952 41.0948 24.4022 41.665 24.4022 42.0846V45.0587L24.402 45.0588Z" fill="black"/>
<path d="M9.3876 40.9434C9.40947 41.6222 9.35865 42.3079 9.38631 42.9864C9.39548 43.2118 9.40722 43.6544 9.49245 43.8448C9.68897 44.2835 10.385 44.1119 10.6738 43.8531V40.9434H11.9598V45.0588H10.6738L10.6735 44.6408C10.206 45.0593 9.76294 45.2627 9.11791 45.1839C8.57532 45.1176 8.10156 44.5168 8.10156 43.9818V40.9434H9.3876Z" fill="black"/>
<path d="M27.3261 0.0773082V1.04188C26.9766 1.03014 26.7142 0.894893 26.36 0.992186C26.0144 1.08707 25.9958 1.32877 26.0077 1.65265H27.0366V2.58506H26.0399V5.86456H24.7217V2.58506H24.2233C24.1775 2.55692 24.1789 2.52089 24.1734 2.4741C24.158 2.34207 24.153 1.85335 24.175 1.7329C24.1816 1.69688 24.1914 1.67276 24.2233 1.65249H24.7217C24.6945 1.153 24.7979 0.641609 25.2036 0.317727C25.7607 -0.126766 26.663 0.00156425 27.3261 0.0769866V0.0773082Z" fill="black"/>
<path d="M20.6407 0.462402V1.65211H21.8785L21.9267 1.70036V2.53627L21.8785 2.58452H20.6407V4.49758C20.6407 4.55531 20.7251 4.79766 20.7685 4.85201C20.9039 5.02135 21.1939 5.04708 21.3928 5.02457C21.4698 5.01588 21.9267 4.82853 21.9267 4.9477V5.78362C21.7517 5.915 21.395 5.94845 21.1725 5.9618C20.3565 6.01053 19.3223 5.81642 19.3223 4.78688V2.58452H18.8561C18.8103 2.55638 18.8117 2.52035 18.8062 2.47356C18.7908 2.34153 18.7858 1.85281 18.8079 1.73236C18.8144 1.69634 18.8243 1.67221 18.8561 1.65195H19.3223V0.462402H20.6405H20.6407Z" fill="black"/>
<path d="M14.3044 39.752V40.9417H15.5583V41.7937L15.51 41.8419H14.3042V43.755C14.3042 43.7821 14.3933 44.0271 14.4176 44.0597C14.6601 44.3876 15.2419 44.1523 15.5583 44.1248V45.009C15.465 45.0703 15.2982 45.0946 15.1799 45.1129C14.5861 45.2047 13.6124 45.215 13.2293 44.6694C13.1647 44.5774 13.0184 44.2089 13.0184 44.1088V41.8421H12.5522L12.5039 41.7938V40.9418H12.9701L13.0184 40.8936V39.7521H14.3044V39.752Z" fill="black"/>
<path d="M7.1337 39.3315H5.84766V45.0546H7.1337V39.3315Z" fill="black"/>
<path d="M17.2323 1.65089V2.22966L17.7369 1.8823C18.0532 1.7001 18.3749 1.61695 18.7434 1.65105V2.90492C18.2123 2.83706 17.7306 2.86424 17.2323 3.06574V5.86296H15.9141V1.65089H17.2323Z" fill="black"/>
<path d="M34.2713 40.9434V41.49L34.7321 41.163C34.8041 41.1212 35.1669 40.9434 35.2198 40.9434H35.7503V42.1651C35.2446 42.1165 34.7308 42.0884 34.2713 42.342V45.0588H32.9531V40.9434H34.2713Z" fill="black"/>
<path d="M28.9041 1.65332H27.5859V5.86523H28.9041V1.65332Z" fill="black"/>
<path d="M23.7596 1.65332H22.4414V5.86523H23.7596V1.65332Z" fill="black"/>
<path d="M27.7131 42.1309H25.2695V43.1598H27.7131V42.1309Z" fill="black"/>
<path d="M42.2783 37.5981C42.4095 37.9133 42.4779 38.2601 42.6019 38.5767C42.6151 38.6103 42.6138 38.6542 42.6638 38.6592L42.9856 37.5981H43.4679L43.5645 39.1416L43.2955 39.137L43.2472 39.0887L43.1781 37.8878L42.7894 39.1061H42.442L42.0691 37.8551L41.9853 39.1379L41.6992 39.1416L41.7959 37.5981H42.2782H42.2783Z" fill="black"/>
<path d="M23.8209 0.0449219H22.4062V1.07382H23.8209V0.0449219Z" fill="black"/>
<path d="M28.9655 0.0449219H27.5508V1.07382H28.9655V0.0449219Z" fill="black"/>
<path d="M41.122 37.8553V39.1413C41.0162 39.1294 40.8769 39.1812 40.8005 39.0931V37.8553L40.3485 37.8413C40.2951 37.8037 40.3012 37.635 40.3665 37.5981H41.5882C41.6633 37.6604 41.6602 37.7977 41.5882 37.8553H41.122Z" fill="black"/>
<path d="M37.7253 23.1537C37.7253 31.7052 30.7931 38.6375 22.2416 38.6375C13.6901 38.6375 6.75781 31.7052 6.75781 23.1537C6.75781 14.6022 13.6901 7.66992 22.2416 7.66992C30.7931 7.66992 37.7253 14.6022 37.7253 23.1537ZM35.0034 23.153C35.0034 16.1048 29.2898 10.3912 22.2416 10.3912C15.1934 10.3912 9.47977 16.1048 9.47977 23.153C9.47977 30.2013 15.1934 35.9149 22.2416 35.9149C29.2898 35.9149 35.0034 30.2013 35.0034 23.153Z" fill="black"/>
<path d="M22.4744 21.4926C22.3792 21.4865 22.2789 21.5123 22.1864 21.4753C21.9831 21.3941 21.4689 20.9153 21.1982 20.7593C19.2306 19.6261 16.8287 20.268 16.4987 22.7028C16.3636 23.6993 16.519 25.0457 17.269 25.7816C18.0239 26.522 19.1491 26.6543 20.1595 26.5726V24.7078H18.3268V22.9073H22.5066V27.6015C21.6808 27.8899 20.8184 28.1607 19.9459 28.2721C16.2258 28.7472 13.7779 26.7423 13.9848 22.922C14.2166 18.6462 18.5689 17.4954 22.0137 19.0434C22.1663 19.1121 22.3522 19.1853 22.4743 19.2901V21.4925L22.4744 21.4926Z" fill="black"/>
<path d="M30.6748 18.5991V20.3998H26.6879V22.2324H30.3533V24.0329H26.6879V28.1485H24.3086V18.5991H30.6748Z" fill="black"/>
</svg>
