<svg width="46" height="46" viewBox="0 0 46 46" fill="none" xmlns="http://www.w3.org/2000/svg">
<path d="M45.1856 22.6C45.1856 35.0815 35.0704 45.1999 22.5928 45.1999C10.1151 45.1999 0 35.0815 0 22.6C0 10.1184 10.1151 0 22.5928 0C35.0704 0 45.1856 10.1184 45.1856 22.6ZM44.7524 22.6C44.7524 10.3575 34.8313 0.43317 22.5921 0.43317C10.353 0.43317 0.432516 10.3575 0.432516 22.6C0.432516 34.8424 10.3536 44.7668 22.5928 44.7668C34.8319 44.7668 44.753 34.8424 44.753 22.6H44.7524Z" fill="black"/>
<path d="M35.4108 11.4162C35.4128 11.9487 35.1253 12.4165 34.9868 12.9176C34.4014 15.0298 35.0737 16.8409 33.6115 18.7859C32.5988 20.1325 30.855 21.1047 29.2151 21.4366C28.4056 21.6006 27.9653 21.3778 27.3969 22.0984C26.1575 23.6704 24.7887 28.6809 24.298 30.7468C23.6734 33.3739 23.4742 36.0775 22.9567 38.7255C22.1518 38.8627 21.339 38.8457 20.5308 38.7346C19.5809 33.8084 18.4395 28.8462 16.8335 24.0931C15.5196 20.2037 13.4903 16.5848 10.7816 13.5036C10.4418 13.1175 9.87799 12.7758 9.76953 12.2649C10.0015 12.0447 11.661 13.0646 11.9426 13.2554C15.3178 15.5434 17.5405 19.2714 18.8393 23.0647C19.8259 25.946 20.3302 29.0696 21.3005 31.8941C21.3887 32.1502 21.456 32.484 21.7082 32.6271C22.5222 30.7383 22.9939 28.726 23.6649 26.7849C24.7266 23.7135 26.1535 20.1318 28.1423 17.5577C28.3743 17.2578 29.5588 15.9981 29.5359 15.7551C29.402 15.5702 29.1413 15.7041 28.9544 15.759C27.8078 16.0955 26.6475 17.4969 25.9621 18.4442C25.74 18.7513 24.8142 20.352 24.5476 20.3579C24.4169 19.9665 24.4784 19.4471 24.5228 19.0277C24.8201 16.2131 26.3861 13.7075 29.2236 12.9607C30.5584 12.6098 32.0069 12.5314 33.3371 12.1146C34.0512 11.8905 34.6529 11.4155 35.4108 11.4155V11.4162Z" fill="black"/>
<path d="M35.5409 37.132C35.522 37.5156 35.8336 38.2761 35.8009 38.6001C35.7898 38.7125 35.5579 38.9588 35.4547 38.949L34.1048 38.4381L35.0117 39.5925C35.0594 39.7709 34.7406 39.9891 34.5929 40.0571L32.8047 37.8265C32.9367 37.6665 33.1091 37.4496 33.3385 37.4705C33.5678 37.4914 35.0084 38.1911 35.0836 38.1108C35.1496 37.6044 34.7517 36.7002 34.8216 36.2546C34.8438 36.1109 35.1803 35.8005 35.3057 35.8312L37.105 38.0127L36.6163 38.4302L35.5409 37.1314V37.132Z" fill="black"/>
<path d="M17.8594 43.2632L18.3167 40.3911C18.9916 40.5401 20.5623 40.4636 20.5381 41.4652C20.5296 41.8272 20.2395 41.9539 20.218 42.065C20.1964 42.1761 20.5636 42.5334 20.3552 43.0509C20.0069 43.9166 18.5278 43.2495 17.8594 43.2632ZM19.8011 41.2555L18.9008 41.0726L18.7728 41.6318C19.0517 41.5913 19.4934 41.8187 19.7345 41.7207C19.8965 41.6547 19.9122 41.362 19.8011 41.2555ZM18.5768 42.8065C18.8773 42.7536 19.8573 43.1861 19.8024 42.589C19.7645 42.1748 19.0406 42.2799 18.7447 42.1623L18.5768 42.8072V42.8065Z" fill="black"/>
<path d="M5.66165 10.4948C5.6218 10.4373 5.72045 10.304 5.759 10.2452C5.93083 9.98125 6.60051 9.15542 6.86055 9.06329C7.14867 8.96137 7.48319 8.97248 7.71316 9.19527C7.84775 9.32529 7.86932 9.58009 7.93661 9.62387C8.03135 9.68593 8.22278 9.63563 8.34887 9.66829C8.85979 9.80092 9.00418 10.2269 8.90291 10.7156C8.87024 10.8737 8.09211 11.8949 7.94053 12.0367C7.88957 12.0844 7.86147 12.1366 7.77654 12.136L5.661 10.4948H5.66165ZM7.1245 9.61015C6.89452 9.61015 6.6273 10.1433 6.44044 10.2733L6.86381 10.6261C6.90824 10.6261 7.39629 9.98909 7.40805 9.93094C7.43876 9.78002 7.25059 9.60949 7.12385 9.61015H7.1245ZM7.80855 11.35C7.88304 11.1115 8.71475 10.4177 8.15483 10.2517C7.77327 10.1387 7.50279 10.7535 7.2911 10.992L7.80855 11.3494V11.35Z" fill="black"/>
<path d="M33.3415 39.9754C33.3415 40.815 32.6607 41.4958 31.8211 41.4958C30.9816 41.4958 30.3008 40.815 30.3008 39.9754C30.3008 39.1359 30.9816 38.4551 31.8211 38.4551C32.6607 38.4551 33.3415 39.1359 33.3415 39.9754ZM32.711 39.9702C32.711 39.4808 32.3144 39.0849 31.8257 39.0849C31.337 39.0849 30.9404 39.4815 30.9404 39.9702C30.9404 40.4589 31.337 40.8555 31.8257 40.8555C32.3144 40.8555 32.711 40.4589 32.711 39.9702Z" fill="black"/>
<path d="M30.7122 5.14918L31.3009 3.58245L31.8164 3.78499L30.7789 6.36179L30.266 6.15011L29.7329 4.10448L29.0175 5.64115L28.4961 5.47259L29.5415 2.86573C29.5702 2.84482 29.8995 2.96373 29.9544 3.00228C30.2281 3.19436 30.4104 4.59122 30.5783 4.98845C30.6064 5.0551 30.6208 5.14069 30.7109 5.14853L30.7122 5.14918Z" fill="black"/>
<path d="M41.3464 13.3096L41.5098 13.8375L40.4997 15.7237L42.035 15.0867L42.2591 15.6551L39.7137 16.675L39.5471 16.115L40.565 14.2889L38.9682 14.9429L38.7461 14.4503L41.3464 13.3096Z" fill="black"/>
<path d="M18.4453 2.08008L19.164 4.82153L18.6406 4.91626L16.8805 3.64746C16.8263 3.70495 17.2921 4.94697 17.2745 5.18152C17.2601 5.36903 16.8988 5.41607 16.7466 5.38275L16.0586 2.73016C16.0965 2.68247 16.3938 2.60537 16.4656 2.60537C16.7903 2.60472 17.9344 3.7226 18.3153 3.90815L17.8592 2.21205L18.4459 2.08073L18.4453 2.08008Z" fill="black"/>
<path d="M40.2317 11.7747C40.2317 12.5862 39.5738 13.2448 38.7623 13.2448C37.9509 13.2448 37.293 12.5868 37.293 11.7747C37.293 10.9626 37.9509 10.3047 38.7623 10.3047C39.5738 10.3047 40.2317 10.9626 40.2317 11.7747ZM38.7231 10.9064C37.359 11.0632 37.8744 13.0834 39.1099 12.5378C40.0351 12.1295 39.5921 10.8065 38.7231 10.9064Z" fill="black"/>
<path d="M27.449 4.10617L27.8403 5.28024L27.1883 5.11756C26.938 4.56286 27.0668 3.94806 26.2756 3.97485L26.0789 4.88888L25.4922 4.75756L26.0802 2.01611C26.6297 2.17292 27.643 2.18729 28.001 2.67273C28.3839 3.19345 28.1186 4.02581 27.4503 4.10552L27.449 4.10617ZM26.4056 3.45217C26.7329 3.40121 27.2288 3.76251 27.4784 3.44891C27.8854 2.93668 26.9041 2.67599 26.5362 2.7348L26.4056 3.45217Z" fill="black"/>
<path d="M23.2728 40.7861V41.3735H21.7721C21.7211 41.4728 21.6447 41.9609 21.8047 41.9609H23.0121V42.5489L21.7074 42.4829V43.1356H23.2735V43.7236L21.0547 43.6583L21.12 40.7861H23.2735H23.2728Z" fill="black"/>
<path d="M9.41731 6.33122L9.82957 6.74348C9.68779 6.91662 8.78552 7.57911 8.79793 7.71828C8.80643 7.81236 9.03052 8.10245 9.13833 8.0835L10.0047 7.30994L10.4189 7.66405L9.53491 8.48008C9.45193 8.60552 9.84721 8.94461 9.92169 8.9322L10.9749 7.95936L11.329 8.32589L9.80017 9.78416L7.94531 7.72024L9.41731 6.33057V6.33122Z" fill="black"/>
<path d="M24.9062 1.82256V2.41058L23.4048 2.34459V2.86792L24.6456 2.93195L24.5815 3.49252L23.3395 3.45463L23.3474 3.97012L24.8389 4.10863L24.7684 4.62216L22.6953 4.49214L22.8841 1.69189L24.9062 1.82256Z" fill="black"/>
<path d="M29.6108 41.4465L30.2563 41.4394C30.2047 42.8369 28.1198 43.2426 27.4626 42.0476C26.5786 40.4404 28.553 38.986 29.8636 40.1666L29.3762 40.5782C28.9594 40.1372 28.0473 40.3633 27.9225 40.9644C27.6736 42.1685 29.3096 42.6592 29.6108 41.4465Z" fill="black"/>
<path d="M17.2043 43.0717L16.6268 42.8666L16.5098 42.2831L15.4475 41.9251L15.0731 42.2818L14.4648 42.1577L16.519 39.7651L17.0011 39.9801L17.205 43.0717H17.2043ZM16.5523 41.6357L16.4549 40.7223L15.8362 41.407C15.8349 41.4867 16.4968 41.6879 16.5523 41.635V41.6357Z" fill="black"/>
<path d="M7.41947 12.5914L7.15879 13.1507L6.56424 13.154L6.0592 14.1373C6.38914 14.5378 6.43031 14.6417 6.08076 15.0716L4.22656 12.6894L4.45589 12.2759L7.41882 12.5914H7.41947ZM5.98407 13.0488L5.07069 12.9181L5.62603 13.6348C5.7162 13.6773 5.83119 13.4179 5.86385 13.3519C5.9122 13.2546 5.98799 13.1651 5.98407 13.0481V13.0488Z" fill="black"/>
<path d="M42.9619 18.2557L40.4975 19.9662L40.44 19.3586L40.8124 19.1064L40.5694 17.918L40.0519 17.8017L39.9102 17.2261L42.7993 17.6971C42.9829 17.7729 43.0103 18.0839 42.9619 18.2564V18.2557ZM42.0629 18.1395L41.1496 18.0088L41.2802 18.6608C41.3606 18.7366 41.9891 18.2747 42.0629 18.1388V18.1395Z" fill="black"/>
<path d="M33.645 8.21504L33.1523 7.88771C33.0772 7.74529 33.268 7.47153 33.1752 7.31408C33.1471 7.26638 32.286 6.7326 32.2311 6.7241C32.0952 6.70319 31.9397 6.9972 31.7359 6.96649C31.6503 6.95343 31.2243 6.69013 31.2975 6.58429C31.7437 6.46015 33.5156 4.99077 33.8044 5.01494C33.9102 5.02409 34.0455 5.15149 34.1356 5.21356L33.645 8.21504ZM33.5156 5.86626L32.7329 6.3236L33.2876 6.77898L33.5156 5.86626Z" fill="black"/>
<path d="M9.57164 38.0438L11.3768 37.0775L11.9198 37.5212L9.24497 38.8658C8.98951 38.9442 8.7151 38.5913 8.80134 38.3548L9.73432 35.6304C9.87937 35.7839 10.1695 35.8558 10.1577 36.1112L9.57164 38.0445V38.0438Z" fill="black"/>
<path d="M4.61062 20.9502L4.50805 21.4768L1.67578 22.3823L1.73916 21.7616L3.63256 21.1096L1.80972 20.223L1.87179 19.5762L4.61062 20.9502Z" fill="black"/>
<path d="M35.5726 6.1958C35.7712 6.40161 37.3138 7.64558 37.2929 7.78017C37.2837 7.83962 37.0596 8.1565 36.9551 8.14278C36.7473 8.09378 36.4213 7.57371 36.2586 7.65799L34.7899 9.26L34.3672 8.83663L35.8653 7.20522L35.2192 6.60872L35.5733 6.19645L35.5726 6.1958Z" fill="black"/>
<path d="M21.8399 1.68913V2.27714C21.6975 2.28629 21.0271 2.22684 20.9886 2.3856L21.1879 4.56125L20.6005 4.62658L20.4045 2.40716L19.4911 2.47249L19.4258 1.88513L21.8399 1.68848V1.68913Z" fill="black"/>
<path d="M12.9021 40.7809L14.1356 41.4055L13.8449 41.8949L12.0547 40.943L13.3862 38.3779C13.5365 38.5066 13.905 38.5269 13.8677 38.7797C13.8142 39.1397 13.117 40.0858 12.9491 40.5431C12.9204 40.6209 12.8746 40.6927 12.9027 40.7803L12.9021 40.7809Z" fill="black"/>
<path d="M40.7839 31.0091C41.2923 31.0091 41.7044 30.597 41.7044 30.0885C41.7044 29.5801 41.2923 29.168 40.7839 29.168C40.2754 29.168 39.8633 29.5801 39.8633 30.0885C39.8633 30.597 40.2754 31.0091 40.7839 31.0091Z" fill="black"/>
<path d="M24.3818 40.7861L24.6458 43.0696C25.1567 43.0859 26.2929 42.5541 26.0688 43.4531L24.0558 43.7236L23.7344 40.8926C23.7853 40.7117 24.2303 40.8071 24.3825 40.7861H24.3818Z" fill="black"/>
<path d="M4.5104 31.006C5.01665 31.006 5.42704 30.5953 5.42704 30.0887C5.42704 29.5821 5.01665 29.1714 4.5104 29.1714C4.00415 29.1714 3.59375 29.5821 3.59375 30.0887C3.59375 30.5953 4.00415 31.006 4.5104 31.006Z" fill="black"/>
<path d="M5.84613 15.5366L5.26465 17.4235L2.58984 16.5081L2.7865 15.9214L4.93536 16.6369L5.33064 15.3994L5.84613 15.5366Z" fill="black"/>
<path d="M11.0007 5.35156L12.1193 7.17114L13.2679 6.46095L13.6174 6.87778L11.9612 7.94993L10.4219 5.63708L11.0007 5.35156Z" fill="black"/>
<path d="M43.434 21.008L41.1499 21.1387L41.2158 22.51H40.6932L40.5625 20.5513L43.368 20.356L43.434 21.008Z" fill="black"/>
<path d="M15.8986 5.7984L15.4099 5.98852L14.3443 3.53324C14.2992 3.29411 14.6063 3.27517 14.7716 3.20068L14.8892 3.2523L15.8986 5.7984Z" fill="black"/>
<path d="M37.9259 8.48145L38.344 8.90351L36.2265 10.7636L35.8672 10.3389L37.9259 8.48145Z" fill="black"/>
<path d="M11.0486 38.834L11.9855 39.454L11.6934 39.8676L10.7539 39.1888L11.0486 38.834Z" fill="black"/>
<path d="M4.35084 18.1394L4.15484 19.2488L3.63281 19.1821L3.86083 18.1387L3.98497 18.0767L4.35084 18.1394Z" fill="black"/>
<path d="M26.7478 43.2493C26.4878 43.0174 26.755 42.4261 27.1464 42.6822C27.605 42.9828 27.0261 43.497 26.7478 43.2493Z" fill="black"/>
<path d="M27.3257 37.35C27.3257 38.1804 26.6528 38.8534 25.823 38.8534C24.9933 38.8534 24.3203 38.1804 24.3203 37.35C24.3203 36.5196 24.9933 35.8467 25.823 35.8467C26.6528 35.8467 27.3257 36.5196 27.3257 37.35ZM25.5382 36.2361C24.4667 36.434 24.4157 38.1831 25.5676 38.4601C27.261 38.8671 27.4557 35.8813 25.5382 36.2361Z" fill="black"/>
<path d="M26.2425 36.6124C26.5228 36.6902 26.5894 37.2899 26.2098 37.3624C26.447 37.5389 26.4692 37.8459 26.5359 38.1131L26.1406 38.0851C26.021 38.0008 26.1269 37.5421 25.7218 37.5238C25.5166 37.5147 25.6656 37.9727 25.6225 38.1138H25.2305V36.6124C25.5055 36.6608 26.0027 36.5464 26.2419 36.6124H26.2425ZM26.0792 36.9397L25.6231 36.8737V37.2658C25.8721 37.2965 26.1086 37.2364 26.0792 36.9397Z" fill="black"/>
</svg>
