<svg width="159" height="159" viewBox="0 0 159 159" fill="none" xmlns="http://www.w3.org/2000/svg">
<path d="M79.4996 12.05C82.2749 12.05 84.5247 9.80026 84.5247 7.02502C84.5247 4.24978 82.2749 2 79.4996 2C76.7244 2 74.4746 4.24978 74.4746 7.02502C74.4746 9.80026 76.7244 12.05 79.4996 12.05Z" fill="#EEE9E3" stroke="#EEE9E3" stroke-width="4"/>
<path d="M28.2516 33.2773C31.0268 33.2773 33.2766 31.0276 33.2766 28.2523C33.2766 25.4771 31.0268 23.2273 28.2516 23.2273C25.4763 23.2273 23.2266 25.4771 23.2266 28.2523C23.2266 31.0276 25.4763 33.2773 28.2516 33.2773Z" fill="#EEE9E3" stroke="#EEE9E3" stroke-width="4"/>
<path d="M7.02502 84.5242C9.80026 84.5242 12.05 82.2744 12.05 79.4991C12.05 76.7239 9.80026 74.4741 7.02502 74.4741C4.24978 74.4741 2 76.7239 2 79.4991C2 82.2744 4.24978 84.5242 7.02502 84.5242Z" fill="#EEE9E3" stroke="#EEE9E3" stroke-width="4"/>
<path d="M28.2516 135.771C31.0268 135.771 33.2766 133.521 33.2766 130.746C33.2766 127.971 31.0268 125.721 28.2516 125.721C25.4763 125.721 23.2266 127.971 23.2266 130.746C23.2266 133.521 25.4763 135.771 28.2516 135.771Z" fill="#EEE9E3" stroke="#EEE9E3" stroke-width="4"/>
<path d="M79.4996 156.999C82.2749 156.999 84.5247 154.749 84.5247 151.973C84.5247 149.198 82.2749 146.948 79.4996 146.948C76.7244 146.948 74.4746 149.198 74.4746 151.973C74.4746 154.749 76.7244 156.999 79.4996 156.999Z" fill="#EEE9E3" stroke="#EEE9E3" stroke-width="4"/>
<path d="M130.746 135.771C133.521 135.771 135.771 133.521 135.771 130.746C135.771 127.971 133.521 125.721 130.746 125.721C127.97 125.721 125.721 127.971 125.721 130.746C125.721 133.521 127.97 135.771 130.746 135.771Z" fill="#EEE9E3" stroke="#EEE9E3" stroke-width="4"/>
<path d="M151.974 84.5242C154.749 84.5242 156.999 82.2744 156.999 79.4991C156.999 76.7239 154.749 74.4741 151.974 74.4741C149.199 74.4741 146.949 76.7239 146.949 79.4991C146.949 82.2744 149.199 84.5242 151.974 84.5242Z" fill="#EEE9E3" stroke="#EEE9E3" stroke-width="4"/>
<path d="M130.746 33.2773C133.521 33.2773 135.771 31.0276 135.771 28.2523C135.771 25.4771 133.521 23.2273 130.746 23.2273C127.97 23.2273 125.721 25.4771 125.721 28.2523C125.721 31.0276 127.97 33.2773 130.746 33.2773Z" fill="#EEE9E3" stroke="#EEE9E3" stroke-width="4"/>
</svg>
